<svg fill="#fff" t="1594977807238" class="icon" viewBox="0 0 1024 1024" version="1.1" xmlns="http://www.w3.org/2000/svg" p-id="13559" xmlns:xlink="http://www.w3.org/1999/xlink" width="200" height="200"><defs><style type="text/css"></style></defs><path d="M695.192661 320.135498c-10.117149-10.117149-26.015526-10.117149-36.132675 0L502.244178 476.951306 345.42837 320.135498c-10.117149-10.117149-26.015526-10.117149-36.132675 0s-10.117149 26.015526 0 36.132674L466.111503 513.08398 310.018349 669.177135c-10.117149 10.117149-10.117149 26.015526 0 35.410021 5.058574 5.058574 11.562456 7.226535 18.066337 7.226535s13.007763-2.16796 18.066337-7.226535l156.815808-156.815808 156.815808 156.815808c5.058574 5.058574 11.562456 7.226535 18.066338 7.226535s13.007763-2.16796 18.066337-7.226535c10.117149-10.117149 10.117149-26.015526 0-35.410021L538.376853 512.361327l156.815808-156.815808c10.117149-9.394495 10.117149-26.015526 0-35.410021z" fill="" p-id="13560"></path><path d="M908.375441 486.345801c-0.722653-13.730416-13.007763-24.570219-26.738179-23.847565-13.730416 0.722653-24.570219 12.285109-23.847565 26.738179 0 6.503881 0.722653 12.285109 0.722653 18.788991 0 198.729711-161.151729 359.88144-359.88144 359.881439S138.749471 706.755116 138.749471 508.025406c0-198.729711 161.151729-359.88144 359.881439-359.88144 52.753705 0 103.33945 10.839802 151.03458 33.242061 5.058574 2.16796 10.839802 5.058574 15.898377 7.949188 12.285109 6.503881 27.460833 1.445307 33.964715-10.839802 6.503881-12.285109 1.445307-27.460833-10.839803-33.964714-5.781228-2.890614-12.285109-6.503881-18.788991-9.394496-54.199012-25.292872-112.011291-37.577982-171.991531-37.577981-226.190543 0-410.467184 184.276641-410.467184 410.467184s184.276641 410.467184 410.467184 410.467184 410.467184-184.276641 410.467184-410.467184c0.722653-7.226535 0.722653-14.45307 0-21.679605z" fill="" p-id="13561"></path><path d="M865.738885 389.510233m-27.460833 0a27.460833 27.460833 0 1 0 54.921666 0 27.460833 27.460833 0 1 0-54.921666 0Z" fill="" p-id="13562"></path><path d="M825.270289 300.623853m-27.460832 0a27.460833 27.460833 0 1 0 54.921665 0 27.460833 27.460833 0 1 0-54.921665 0Z" fill="" p-id="13563"></path><path d="M759.508821 224.745236m-27.460832 0a27.460833 27.460833 0 1 0 54.921665 0 27.460833 27.460833 0 1 0-54.921665 0Z" fill="" p-id="13564"></path></svg>