<svg viewBox="0 0 1024 1024" version="1.1" xmlns="http://www.w3.org/2000/svg"><path d="M180.7 432.8h28.8c42.7 0 77.4 34.7 77.4 77.4s-34.7 77.4-77.4 77.4h-28.8V800h663.5V587.6h-28.8c-42.7 0-77.4-34.7-77.4-77.4s34.7-77.4 77.4-77.4h28.8V220.5H180.7v212.3z m57.6-154.7h548.4v100.3c-60.7 13.2-106.2 67.3-106.2 131.9S726 628.9 786.7 642.1v100.3H238.3V642.1c60.7-13.2 106.2-67.3 106.2-131.9S299 391.5 238.3 378.3V278.1z" fill="#3589fc"></path><path d="M416.1 452.7v57.5h67v39.7h-67v57.5h67v42.8h57.6v-42.8h67v-57.5h-67v-39.7h67v-57.5h-42.4l43.8-66.6-48.1-31.7-49.1 74.7-49.1-74.7-48.1 31.7 43.8 66.6z" fill="#3589fc"></path></svg>