<svg viewBox="0 0 1024 1024" version="1.1" xmlns="http://www.w3.org/2000/svg"><path d="M307.5 659.5v-74.7c0-110 90-200 200-200h85.7c110 0 200 90 200 200v74.7c0 64.6-52.8 117.4-117.4 117.4H424.9c-64.6 0-117.4-52.9-117.4-117.4z" fill="#3a95ff" p-id="9949"></path><path d="M303.5 669.4V567.9c0-100.7 88.9-183.1 197.6-183.1 108.7 0 193.6 82.4 193.6 183.1v101.5c0 59.1-48.2 107.5-112 107.5H419.5c-63.8 0-116-48.4-116-107.5z" fill="#3a95ff" p-id="9950"></path><path d="M421.2 327.5c31.3 14.1 62.2 12.5 117.2 12.6 52 0 87.3 2.4 116-12.6 14.1-7.4 38.4-26.6 43.3-43.7 12.8-44.5-0.9-86.6-30.6-94.1-17.4-4.3-60.8 10-84.4 9.5-27.2-0.5-9.2-13.4-38.5-13.4-32.5 0-48.1 30.5-78.4 31.5-26.9 0.8-39.6-20.8-58.7-16-29.7 7.4-40.8 39.4-28.1 83.9 4.8 16.5 28 36 42.2 42.3z" fill="#3a95ff" p-id="9951"></path><path d="M404.1 321.3c25.4 13.7 50.4 12.2 94.9 12.2 42.2 0 70.8 2.3 94-12.2 11.4-7.2 31.1-25.8 35.1-42.5 10.4-43.3-0.7-84.2-24.8-91.4-14.1-4.2-22.8 20.8-41.9 20.3-22-0.5-34.8-31.9-58.5-31.9-26.3 0-42.5 27.8-67 28.7-21.8 0.8-30.5-8-46-3.4-24 7.2-30.3 35.8-19.9 79.1 3.8 16 22.6 34.9 34.1 41.1z" fill="#3a95ff" p-id="9952"></path><path d="M530 348.8c-5.8 0-11.8 0-18-0.1-6.4 0-13-0.1-20-0.1h-16c-49.5 0.1-82.2 0.2-115.4-13.7-7.1-3-15.5-8-23.5-14.2-6.6-5-7.8-14.5-2.8-21 5-6.6 14.5-7.8 21-2.8 5.8 4.5 12.1 8.3 16.8 10.3 27.6 11.6 56.2 11.5 103.7 11.4h16c7 0 13.7 0 20.1 0.1 42.9 0.3 73.9 0.4 97.6-11.1 15.2-7.4 35.4-24.2 38.7-34.7 6.9-22.4 5.8-44.8-2.9-59.9-4.7-8.2-11.1-13.3-18.9-15.1-2.5-0.6-6.6 2.1-12.9 6.5-9.2 6.4-21.7 15.1-39.3 14.8-18.7-0.3-32.8-10.1-45.2-18.6-11-7.6-20.5-14.2-31.9-14.2-12.7 0-22.6 7.9-34 16.9-13 10.3-27.7 21.9-48.4 22.5-20.4 0.6-34-10.5-44-18.6-6.4-5.2-10.7-8.5-13.3-7.9-14.4 3.4-20.7 17.1-23.2 25.1-2.2 7-3.2 14.8-3.1 23.2 0.2 8.7 1.7 17.7 4.4 26.7 2.4 7.9-2 16.3-9.9 18.7-7.9 2.4-16.3-2-18.7-9.9-3.6-11.7-5.5-23.4-5.8-34.9-0.2-11.7 1.2-22.7 4.4-32.9 7.5-23.8 23.9-40.4 45-45.3 17.1-4 29.3 5.9 39 13.9 9.3 7.6 15.5 12.1 24.1 11.9 10.8-0.3 20-7.6 30.6-16.1 13.9-11 29.6-23.4 52.7-23.4 20.8 0 35.8 10.4 49 19.5 10.2 7.1 19 13.2 28.7 13.3 7.9 0.1 14.3-4.3 21.6-9.4 9.4-6.6 21.2-14.8 36.9-11.1 16 3.7 29.2 13.9 38.1 29.4 13 22.6 15 53.1 5.6 83.7-7 22.6-36.9 44.4-54.2 52.8-25.7 12.8-54.7 14.3-92.6 14.3z" fill="#3a95ff" p-id="9953"></path><path d="M570.7 611H439.5c-6.7 0-12.1-5.4-12.1-12.1 0-6.7 5.4-12.1 12.1-12.1h131.2c6.7 0 12.1 5.4 12.1 12.1 0 6.7-5.4 12.1-12.1 12.1z" fill="#3a95ff" p-id="9954"></path><path d="M589.4 536.7L548 598.6c-2.4 3.7-8.6 5.9-13.6 4.9-8.3-1.7-11.8-8-7.8-14l41.3-61.9c2.4-3.7 8.6-5.9 13.6-4.9 8.4 1.6 11.9 7.9 7.9 14zM521 604.8v82c0 7.1-5.8 12.9-12.9 12.9-7.1 0-12.9-5.8-12.9-12.9v-82c0-7.1 5.8-12.9 12.9-12.9 7.1-0.1 12.9 5.8 12.9 12.9zM429.9 536.7l41.3 61.9c2.4 3.7 8.6 5.9 13.6 4.9 8.3-1.7 11.8-8 7.8-14l-41.3-61.9c-2.4-3.7-8.6-5.9-13.6-4.9-8.4 1.6-11.9 7.9-7.8 14z" fill="#3a95ff" p-id="9955"></path><path d="M570.7 656H439.5c-6.7 0-12.1-5.4-12.1-12.1 0-6.7 5.4-12.1 12.1-12.1h131.2c6.7 0 12.1 5.4 12.1 12.1 0 6.7-5.4 12.1-12.1 12.1zM348.1 548.6c-7.1 0-13.4-5.1-14.7-12.3-2.6-14.3 0.5-36.6 29.9-61.8 6.3-5.4 15.8-4.7 21.2 1.6 5.4 6.3 4.7 15.8-1.6 21.2-8.4 7.2-22.1 21.1-19.9 33.7 1.5 8.2-3.9 16-12.1 17.4-1 0.2-1.9 0.2-2.8 0.2zM400.4 471.5c-2.1 0-4.2-0.4-6.2-1.4-7.5-3.5-10.8-12.4-7.4-19.9 0.6-1.4 1-2.2 1-2.2 3.6-7.4 12.6-10.5 20.1-6.9 7.4 3.6 10.5 12.6 6.9 20 0 0.1-0.3 0.6-0.7 1.5-2.5 5.7-8 8.9-13.7 8.9z" fill="#3a95ff" p-id="9956"></path><path d="M629.3 784.2h-272c-71.6 0-129.8-54.9-129.8-122.5V560.2c0-33.4 9.1-66.6 26.4-95.8 4.2-7.1 13.4-9.5 20.5-5.3s9.5 13.4 5.3 20.5c-14.5 24.6-22.2 52.4-22.2 80.5v101.5c0 51 44.8 92.5 99.8 92.5h272c55 0 99.8-41.5 99.8-92.5v-31.3c0-8.3 6.7-15 15-15s15 6.7 15 15v31.3c0.1 67.6-58.2 122.6-129.8 122.6zM744.2 610.6c-8.3 0-15-6.7-15-15v-0.9c0-8.3 6.7-15 15-15s15 6.7 15 15v0.9c0 8.3-6.8 15-15 15zM744.2 573.1c-8.3 0-15-6.7-15-15 0-91.5-81-166-180.6-166H438.1c-38.1 0-74.7 11.1-105.7 32-10.6 7.1-20.3 15.4-29.1 24.5-5.7 6-15.2 6.2-21.2 0.4-6-5.7-6.2-15.2-0.4-21.2 10.2-10.6 21.6-20.2 33.9-28.5 36-24.3 78.3-37.1 122.5-37.1h110.5c55.9 0 108.6 20.1 148.3 56.7 40.2 37 62.3 86.5 62.3 139.3 0 8.2-6.8 14.9-15 14.9zM987.4 889.4H967c-8.3 0-15-6.7-15-15s6.7-15 15-15h20.4c8.3 0 15 6.7 15 15s-6.8 15-15 15zM917.4 889.4H484.1c-8.3 0-15-6.7-15-15s6.7-15 15-15h433.2c8.3 0 15 6.7 15 15s-6.6 15-14.9 15z" fill="#3a95ff" p-id="9957"></path><path d="M515.8 889.4H253.3c-8.3 0-15-6.7-15-15s6.7-15 15-15h262.4c8.3 0 15 6.7 15 15s-6.6 15-14.9 15zM154.3 889.4H36.6c-8.3 0-15-6.7-15-15s6.7-15 15-15h117.7c8.3 0 15 6.7 15 15s-6.7 15-15 15z" fill="#3a95ff" p-id="9958"></path><path d="M74.9 319.1c-0.8 0-1.5-0.7-1.5-1.5v-38.7c0-0.8 0.7-1.5 1.5-1.5s1.5 0.7 1.5 1.5v38.7c0 0.9-0.6 1.5-1.5 1.5z" fill="#3a95ff" p-id="9959"></path><path d="M62.9 313.8c-0.4 0-0.7-0.1-1-0.4-0.6-0.6-0.7-1.5-0.1-2.1l25.1-27.4c0.6-0.6 1.5-0.7 2.1-0.1 0.6 0.6 0.7 1.5 0.1 2.1L64 313.3c-0.3 0.3-0.7 0.5-1.1 0.5z" fill="#3a95ff" p-id="9960"></path><path d="M88.1 313.5c-0.4 0-0.8-0.2-1.1-0.5l-25.1-27.4c-0.6-0.6-0.5-1.6 0.1-2.1 0.6-0.6 1.6-0.5 2.1 0.1L89.2 311c0.6 0.6 0.5 1.6-0.1 2.1-0.3 0.2-0.7 0.4-1 0.4z" fill="#3a95ff" p-id="9961"></path><path d="M92.7 299.8H57.1c-0.8 0-1.5-0.7-1.5-1.5s0.7-1.5 1.5-1.5h35.6c0.8 0 1.5 0.7 1.5 1.5s-0.7 1.5-1.5 1.5z" fill="#3a95ff" p-id="9962"></path><path d="M141.2 481h-7.4c-1.4 0-2.5-1.1-2.5-2.5s1.1-2.5 2.5-2.5h7.4c1.4 0 2.5 1.1 2.5 2.5s-1.1 2.5-2.5 2.5zM117.4 481H110c-1.4 0-2.5-1.1-2.5-2.5s1.1-2.5 2.5-2.5h7.4c1.4 0 2.5 1.1 2.5 2.5s-1.1 2.5-2.5 2.5zM119.7 474.8c-0.7 0-1.3-0.3-1.8-0.8l-5.3-5.7c-0.9-1-0.9-2.6 0.2-3.5 1-0.9 2.6-0.9 3.5 0.2l5.3 5.7c0.9 1 0.9 2.6-0.2 3.5-0.5 0.4-1.1 0.6-1.7 0.6zM137.7 493.2c-0.7 0-1.3-0.3-1.8-0.8l-5.3-5.7c-0.9-1-0.9-2.6 0.2-3.5 1-0.9 2.6-0.9 3.5 0.2l5.3 5.7c0.9 1 0.9 2.6-0.2 3.5-0.4 0.4-1.1 0.6-1.7 0.6zM132.5 474.3c-0.6 0-1.2-0.2-1.7-0.7-1-0.9-1.1-2.5-0.2-3.5l5.3-5.7c0.9-1 2.5-1.1 3.5-0.2 1 0.9 1.1 2.5 0.2 3.5l-5.3 5.7c-0.5 0.6-1.1 0.9-1.8 0.9zM125.8 474c-1.4 0-2.5-1.1-2.5-2.5v-8.1c0-1.4 1.1-2.5 2.5-2.5s2.5 1.1 2.5 2.5v8.1c0 1.4-1.1 2.5-2.5 2.5zM125.8 497.2c-1.4 0-2.5-1.1-2.5-2.5v-8.1c0-1.4 1.1-2.5 2.5-2.5s2.5 1.1 2.5 2.5v8.1c0 1.3-1.1 2.5-2.5 2.5zM114.6 493.1c-0.6 0-1.2-0.2-1.7-0.7-1-0.9-1.1-2.5-0.2-3.5l5.3-5.7c0.9-1 2.5-1.1 3.5-0.2 1 0.9 1.1 2.5 0.2 3.5l-5.3 5.7c-0.4 0.6-1.1 0.9-1.8 0.9z" fill="#3a95ff" p-id="9963"></path><path d="M152.8 279.4h-4.2c-3.1 0-5.7-2.5-5.7-5.7v-1c0-3.1 2.5-5.7 5.7-5.7h4.2c3.1 0 5.7 2.5 5.7 5.7v1c-0.1 3.2-2.6 5.7-5.7 5.7z" fill="#3a95ff" p-id="9964"></path><path d="M111.2 601.4c-2.5 0-4.5-2-4.5-4.5v-0.8c0-2.5 2-4.5 4.5-4.5s4.5 2 4.5 4.5v0.8c0 2.5-2 4.5-4.5 4.5z" fill="#3a95ff" p-id="9965"></path><path d="M77.7 409.4c-7.3 0-13.2-6-13.2-13.2v-2.4c0-7.3 6-13.2 13.2-13.2 7.3 0 13.2 6 13.2 13.2v2.4c0.1 7.3-5.9 13.2-13.2 13.2z" fill="#3a95ff" p-id="9966"></path><path d="M934 455.2h-6.2c-5.4 0-9.8-4.4-9.8-9.8v-1.3c0-5.4 4.4-9.8 9.8-9.8h6.2c5.4 0 9.8 4.4 9.8 9.8v1.3c0 5.4-4.4 9.8-9.8 9.8z m-6.2-15.9c-2.6 0-4.8 2.2-4.8 4.8v1.3c0 2.6 2.2 4.8 4.8 4.8h6.2c2.6 0 4.8-2.2 4.8-4.8v-1.3c0-2.6-2.2-4.8-4.8-4.8h-6.2z" fill="#3a95ff" p-id="9967"></path><path d="M884.3 385.4c-0.8 0-1.5-0.7-1.5-1.5v-23.4c0-0.8 0.7-1.5 1.5-1.5s1.5 0.7 1.5 1.5v23.4c0 0.8-0.7 1.5-1.5 1.5z" fill="#3a95ff" p-id="9968"></path><path d="M877 382.1c-0.4 0-0.7-0.1-1-0.4-0.6-0.6-0.7-1.5-0.1-2.1l15.2-16.6c0.6-0.6 1.5-0.7 2.1-0.1 0.6 0.6 0.7 1.5 0.1 2.1l-15.2 16.6c-0.3 0.3-0.7 0.5-1.1 0.5z" fill="#3a95ff" p-id="9969"></path><path d="M892.3 381.9c-0.4 0-0.8-0.2-1.1-0.5L876 364.9c-0.6-0.6-0.5-1.6 0.1-2.1 0.6-0.6 1.6-0.5 2.1 0.1l15.2 16.6c0.6 0.6 0.5 1.6-0.1 2.1-0.3 0.2-0.7 0.3-1 0.3z" fill="#3a95ff" p-id="9970"></path><path d="M895.1 373.7h-21.5c-0.8 0-1.5-0.7-1.5-1.5s0.7-1.5 1.5-1.5h21.5c0.8 0 1.5 0.7 1.5 1.5s-0.7 1.5-1.5 1.5z" fill="#3a95ff" p-id="9971"></path><path d="M936.5 541.6h-7.4c-1.4 0-2.5-1.1-2.5-2.5s1.1-2.5 2.5-2.5h7.4c1.4 0 2.5 1.1 2.5 2.5s-1.1 2.5-2.5 2.5zM912.7 541.6h-7.4c-1.4 0-2.5-1.1-2.5-2.5s1.1-2.5 2.5-2.5h7.4c1.4 0 2.5 1.1 2.5 2.5s-1.1 2.5-2.5 2.5zM915 535.5c-0.7 0-1.3-0.3-1.8-0.8l-5.3-5.7c-0.9-1-0.9-2.6 0.2-3.5 1-0.9 2.6-0.9 3.5 0.2l5.3 5.7c0.9 1 0.9 2.6-0.2 3.5-0.5 0.3-1.1 0.6-1.7 0.6zM933 553.8c-0.7 0-1.3-0.3-1.8-0.8l-5.3-5.7c-0.9-1-0.9-2.6 0.2-3.5 1-0.9 2.6-0.9 3.5 0.2l5.3 5.7c0.9 1 0.9 2.6-0.2 3.5-0.5 0.4-1.1 0.6-1.7 0.6zM927.8 534.9c-0.6 0-1.2-0.2-1.7-0.7-1-0.9-1.1-2.5-0.2-3.5l5.3-5.7c0.9-1 2.5-1.1 3.5-0.2s1.1 2.5 0.2 3.5l-5.3 5.7c-0.5 0.6-1.1 0.9-1.8 0.9zM921.1 534.7c-1.4 0-2.5-1.1-2.5-2.5v-8.1c0-1.4 1.1-2.5 2.5-2.5s2.5 1.1 2.5 2.5v8.1c0 1.4-1.1 2.5-2.5 2.5zM921.1 557.8c-1.4 0-2.5-1.1-2.5-2.5v-8.1c0-1.4 1.1-2.5 2.5-2.5s2.5 1.1 2.5 2.5v8.1c0 1.4-1.1 2.5-2.5 2.5zM909.9 553.7c-0.6 0-1.2-0.2-1.7-0.7-1-0.9-1.1-2.5-0.2-3.5l5.3-5.7c0.9-1 2.5-1.1 3.5-0.2 1 0.9 1.1 2.5 0.2 3.5l-5.3 5.7c-0.4 0.6-1.1 0.9-1.8 0.9z" fill="#3a95ff" p-id="9972"></path><path d="M872.9 623.4h-4.3c-1.2 0-2.1-1-2.1-2.1v-0.4c0-1.2 1-2.1 2.1-2.1h4.3c1.2 0 2.1 1 2.1 2.1v0.4c0.1 1.2-0.9 2.1-2.1 2.1z" fill="#3a95ff" p-id="9973"></path><path d="M874.2 508.1h-9.3c-4 0-7.2-3.2-7.2-7.2v-0.8c0-4 3.2-7.2 7.2-7.2h9.3c4 0 7.2 3.2 7.2 7.2v0.8c-0.1 4-3.3 7.2-7.2 7.2z m-9.4-10.2c-1.2 0-2.2 1-2.2 2.2v0.8c0 1.2 1 2.2 2.2 2.2h9.3c1.2 0 2.2-1 2.2-2.2v-0.8c0-1.2-1-2.2-2.2-2.2h-9.3z" fill="#3a95ff" p-id="9974"></path><path d="M862.6 295.7a5.7 6.3 0 1 0 11.4 0 5.7 6.3 0 1 0-11.4 0Z" fill="#3a95ff" p-id="9975"></path></svg>