<svg viewBox="0 0 1024 1024" version="1.1" xmlns="http://www.w3.org/2000/svg" p-id="6558" xmlns:xlink="http://www.w3.org/1999/xlink" width="200" height="200"><defs><style type="text/css"></style></defs><path d="M527.2 562.2c-134.6 0-244.2-109.6-244.2-244.2S392.6 73.8 527.2 73.8 771.4 183.2 771.4 318s-109.6 244.2-244.2 244.2z m0-432.4c-103.8 0-188.2 84.4-188.2 188.2s84.4 188.2 188.2 188.2 188.2-84.4 188.2-188.2-84.4-188.2-188.2-188.2zM853.2 952.6h-652c-37.4 0-68-30.6-68-68 0-163.8 133.2-297 297-297h194.2c163.8 0 297 133.2 297 297-0.2 37.4-30.6 68-68.2 68zM430.2 643.6c-64 0-124.4 25.2-170.2 70.8-45.6 45.6-70.8 106-70.8 170.2 0 6.6 5.4 12 12 12h652c6.6 0 12-5.4 12-12 0-64-25.2-124.4-70.8-170.2-45.6-45.6-106-70.8-170.2-70.8h-194z" fill="#222222" p-id="6559"></path></svg>