<?xml version="1.0" standalone="no"?><!DOCTYPE svg PUBLIC "-//W3C//DTD SVG 1.1//EN" "http://www.w3.org/Graphics/SVG/1.1/DTD/svg11.dtd"><svg class="icon" width="64px" height="54.43px" viewBox="0 0 1204 1024" version="1.1" xmlns="http://www.w3.org/2000/svg"><path fill="#cbbb93" d="M340.781176 915.275294c-10.691765-29.033412-18.823529-70.686118-21.202823-130.68047 0 0 168.899765 94.448941 101.526588 192.873411-15.239529 23.491765-62.795294 53.609412-210.763294-10.962823 0 0 67.162353-46.893176 130.409412-51.260236z m-113.001411-200.523294s126.795294 112.880941 50.447059 184.440471c-17.498353 17.257412-63.939765 34.032941-178.477177-49.302589 0 0 66.439529-27.437176 121.434353-19.184941-3.614118-26.864941-2.710588-64.120471 6.625882-115.952941z m-55.958589-90.955294s84.118588 128.903529 0.301177 173.327059c-19.395765 10.932706-64 14.576941-144.414118-85.534118 0 0 64.662588-8.252235 110.802824 12.047059 3.192471-24.395294 12.830118-56.711529 33.310117-99.84z m-2.68047-126.494118s28.852706 137.728-57.313882 147.757177c-20.178824 2.891294-59.392-8.854588-94.59953-120.832 0 0 57.795765 14.456471 90.352941 47.073882 10.842353-19.696941 29.816471-44.062118 61.560471-73.999059z m11.143529-118.723764s-3.855059 140.679529-89.991529 130.469647c-20.269176-1.897412-55.717647-22.377412-64.030118-139.444706 0 0 52.856471 27.407059 77.010824 66.710588 15.058824-16.655059 39.152941-35.960471 77.010823-57.735529z m51.260236-90.774589s-50.145882 121.916235-122.217412 84.329412c-17.106824-8.372706-41.351529-38.128941-9.697883-143.450353 0 0 37.165176 41.622588 45.266824 84.028235 18.763294-9.547294 46.290824-18.432 86.648471-24.907294zM286.810353 202.390588S226.484706 305.332706 166.671059 262.565647c-14.305882-9.667765-32.225882-39.363765 9.366588-129.746823 0 0 28.069647 41.984 29.967059 81.01647 18.010353-6.234353 43.791059-10.721882 80.805647-11.444706z m67.282823-59.271529s-73.487059 72.643765-113.965176 23.491765c-9.758118-11.294118-18.160941-40.146824 36.894118-106.465883 0 0 14.095059 41.411765 6.927058 74.480941 16.474353-1.174588 39.032471 0.843294 70.174118 8.493177z m56.380236-52.284235s-59.964235 59.271529-93.003294 19.154823c-8.011294-9.216-14.848-32.768 30.087529-86.919529 0 0 11.504941 33.792 5.662118 60.837647 13.432471-0.963765 31.864471 0.662588 57.253647 6.927059z m-30.509177-28.310589c52.555294 22.889412 88.847059-42.074353 88.847059-42.074353-78.305882-12.408471-88.847059 42.044235-88.847059 42.044236zM781.312 977.317647c-67.041882-98.304 101.857882-192.752941 101.857882-192.752941-2.379294 59.994353-10.541176 101.647059-21.202823 130.650353 63.247059 4.367059 130.439529 51.260235 130.439529 51.260235-147.968 64.572235-195.523765 34.454588-211.094588 10.842353z m193.656471-262.595765c9.336471 51.832471 10.24 89.088 6.595764 115.952942 54.994824-8.282353 121.434353 19.184941 121.434353 19.184941-114.507294 83.335529-160.978824 66.56-178.778353 49.27247-76.047059-71.529412 50.748235-184.410353 50.748236-184.410353z m55.958588-90.955294c20.48 43.128471 30.117647 75.474824 33.310117 99.84 46.170353-20.299294 110.802824-12.047059 110.802824-12.047059-80.414118 100.111059-124.988235 96.466824-144.685176 85.594353-83.516235-44.513882 0.572235-173.387294 0.572235-173.387294z m59.783529 21.38353c-85.925647-10.119529-57.103059-147.877647-57.103059-147.877647 31.774118 29.936941 50.748235 54.302118 61.560471 73.999058 32.587294-32.617412 90.352941-47.073882 90.352941-47.073882-35.207529 111.977412-74.420706 123.723294-94.810353 120.982588z m21.564236-135.951059c-85.955765 10.029176-89.810824-130.650353-89.810824-130.650353 37.857882 21.775059 61.921882 41.080471 77.010824 57.735529 24.154353-39.273412 77.010824-66.740706 77.010823-66.740706-8.312471 117.097412-43.760941 137.577412-64.210823 139.65553z m-9.155765-280.545883c31.623529 105.321412 7.439059 135.077647-9.818353 143.661177-71.920941 37.376-122.096941-84.570353-122.096941-84.570353 40.357647 6.505412 67.885176 15.36 86.64847 24.967529 8.101647-42.465882 45.266824-84.058353 45.266824-84.058353zM1026.710588 132.818824c41.622588 90.383059 23.672471 120.079059 9.306353 129.957647-59.753412 42.526118-120.079059-60.385882-120.079059-60.385883 37.014588 0.722824 62.795294 5.210353 80.805647 11.444706 1.897412-39.032471 29.967059-81.016471 29.967059-81.01647zM962.56 166.791529c-40.478118 48.971294-113.935059-23.672471-113.935059-23.67247 31.111529-7.649882 53.669647-9.637647 70.144-8.493177-7.137882-33.069176 6.927059-74.480941 6.927059-74.480941 55.055059 66.319059 46.682353 95.171765 36.864 106.616471z m-77.312-56.651294c-33.039059 39.966118-93.003294-19.305412-93.003294-19.305411 25.389176-6.264471 43.821176-7.890824 57.253647-6.927059-5.842824-27.015529 5.662118-60.837647 5.662118-60.837647 44.935529 54.151529 38.098824 77.703529 30.117647 87.070117zM733.906824 20.449882s36.321882 64.993882 88.877176 42.044236c0 0-10.511059-54.452706-88.847059-42.044236z m-171.489883 416.617412h13.312c17.769412 0 32.436706-5.632 44.032-16.926118 11.595294-11.264 17.408-26.081882 17.408-44.513882 0-13.673412-4.096-26.112-12.288-37.406118-8.192-11.264-20.148706-16.865882-35.84-16.865882-26.624 0-45.387294 12.950588-56.32 38.881882l-126.976-20.48c30.027294-83.968 92.852706-125.952 188.416-125.952 46.411294 0 87.371294 12.468706 122.88 37.406118 35.508706 24.907294 53.248 60.897882 53.248 108.032 0 51.2-25.268706 88.726588-75.776 112.64 31.412706 10.24 56.32 28.129882 74.752 53.76 18.432 25.6 27.648 54.422588 27.648 86.528 0 46.381176-18.944 84.449882-56.832 114.145882-37.888 29.726118-87.220706 44.574118-147.968 44.574118-52.555294 0-98.123294-13.161412-136.704-39.454118-38.550588-26.262588-62.283294-60.897882-71.168-103.905882l126.976-23.552c3.403294 19.787294 12.468706 36.141176 27.136 49.152 14.667294 12.950588 32.587294 19.425882 53.76 19.425882 19.787294 0 36.352-6.113882 49.664-18.401882 13.312-12.318118 19.968-28.672 19.968-49.182118 0-23.883294-7.529412-42.827294-22.528-56.801882-15.028706-14.004706-37.556706-21.022118-67.584-21.022118l-19.456 1.054118 10.24-91.166118z"  /></svg>