<?xml version="1.0" standalone="no"?><!DOCTYPE svg PUBLIC "-//W3C//DTD SVG 1.1//EN" "http://www.w3.org/Graphics/SVG/1.1/DTD/svg11.dtd"><svg t="1599791507963" class="icon" viewBox="0 0 1036 1024" version="1.1" xmlns="http://www.w3.org/2000/svg" p-id="2923" xmlns:xlink="http://www.w3.org/1999/xlink" width="202.34375" height="200"><defs><style type="text/css"></style></defs><path d="M586.7024 209.2016h-58.8576c-9.8688 0-17.88 7.8432-17.88 17.52V286.256c0 9.6768 8.0112 17.52 17.88 17.52h58.8576c9.864 0 17.8752-7.8432 17.8752-17.52V226.7264c-0.0144-9.6768-8.0112-17.5248-17.8752-17.5248z" fill="#3a95ff" opacity="0.8" p-id="2924"></path><path d="M586.7024 398.5856h-58.8576c-9.8688 0-17.88 7.9248-17.88 17.7072V475.328c0 9.7824 8.0112 17.7072 17.88 17.7072h58.8576c9.864 0 17.8752-7.9248 17.8752-17.7072V416.2928c-0.0144-9.7824-8.0112-17.7072-17.8752-17.7072z" fill="#3a95ff" p-id="2925"></path><path d="M36.7376 943.4672l0.0096-0.1968-0.0096-0.1968v0.3936zM970.1072 918.7328h-57.9552v-267.7488c0-48.2352-43.4304-87.3264-92.3472-87.3264H770.144V123.9344c0-44.5296-36.6192-80.6256-81.7584-80.6256H213.4592c-45.1392 0-81.7584 36.1056-81.7584 80.6256v794.7984H70.808c-18.7488 0-33.9456 6.1296-34.0608 24.5328 0.1104 18.3792 15.3072 23.0544 34.0608 23.0544h899.2992c18.4848 0 33.4944-7.4064 34.0128-25.2768-0.5184-17.7504-15.528-22.3104-34.0128-22.3104z m-285.2016 0.8064h-90.408c-7.512 0-13.608-6.0096-13.608-13.4448v-116.1072c0-7.4256 6.1056-13.4352 13.608-13.4352h90.3936c7.5216 0 13.6176 6.0096 13.6176 13.4352v116.1072h0.0096c0 7.4352-6.1008 13.4448-13.6128 13.4448z m0-189.8976h-90.408c-7.512 0-13.608-6.0192-13.608-13.4352v-90.7008c0-7.4352 6.1056-14.1744 13.608-14.1744h90.3936c7.5216 0 13.6176 6.0096 13.6176 13.4352v91.4448h0.0096c0 7.4112-6.1008 13.4304-13.6128 13.4304z m-65.2176-165.984c-48.9168 0-85.6128 39.096-85.6128 87.3264v267.7488H178.8848V144.3392c0-29.6832 24.4032-53.7456 54.4896-53.7456h434.8992c30.1056 0 54.4992 24.0624 54.4992 53.7456v419.3136h-103.0848z m245.1216 342.4416c0 7.4352-6.1056 13.4448-13.6272 13.4448h-91.1328c-7.5312 0-13.6272-6.0096-13.6272-13.4448v-116.1072c0-7.4256 6.1056-13.4352 13.6272-13.4352h91.1328c7.5312 0 13.6272 6.0096 13.6272 13.4352v116.1072z m0-189.8928c0 7.416-6.1056 13.4352-13.6272 13.4352h-91.1328c-7.5312 0-13.6272-6.0192-13.6272-13.4352v-91.4448c0-7.4256 6.1056-13.4352 13.6272-13.4352h91.1328c7.5312 0 13.6272 6.0096 13.6272 13.4352v91.4448z" fill="#3a95ff"  p-id="2926"></path><path d="M1004.168 940.1072c0 0.3264-0.0384 0.6192-0.048 0.936 0.0096 0.312 0.048 0.6 0.048 0.9264v-1.8624z" fill="#3a95ff" p-id="2927"></path><path d="M373.9088 398.5856h-59.28a17.7408 17.7408 0 0 0-17.7696 17.7072V475.328a17.7408 17.7408 0 0 0 17.7696 17.7072h59.28a17.7408 17.7408 0 0 0 17.7696-17.7072V416.2928a17.736 17.736 0 0 0-17.7696-17.7072z" fill="#3a95ff" opacity="0.8" p-id="2928"></path><path d="M373.9088 209.2016h-59.28c-9.8064 0-17.7696 7.8432-17.7696 17.52V286.256c0 9.6768 7.9632 17.52 17.7696 17.52h59.28c9.8064 0 17.7696-7.8432 17.7696-17.52V226.7264c0.0048-9.6768-7.9632-17.5248-17.7696-17.5248z" fill="#3a95ff"  opacity="0.5"  p-id="2929"></path><path d="M373.9088 588.0608h-59.28c-9.8064 0-17.7696 7.8384-17.7696 17.52v59.52c0 9.6864 7.9632 17.52 17.7696 17.52h59.28c9.8064 0 17.7696-7.8384 17.7696-17.52v-59.52c0.0048-9.6816-7.9632-17.52-17.7696-17.52z" fill="#3a95ff" p-id="2930"></path></svg>