<?xml version="1.0" standalone="no"?><!DOCTYPE svg PUBLIC "-//W3C//DTD SVG 1.1//EN" "http://www.w3.org/Graphics/SVG/1.1/DTD/svg11.dtd"><svg t="1599791845400" class="icon" viewBox="0 0 1024 1024" version="1.1" xmlns="http://www.w3.org/2000/svg" p-id="3534" xmlns:xlink="http://www.w3.org/1999/xlink" width="200" height="200"><defs><style type="text/css"></style></defs><path d="M826.428 892.072H206.855c-56.103 0-101.746-45.644-101.746-101.747V341.849c0-56.103 45.643-101.747 101.746-101.747h619.572c56.103 0 101.746 45.644 101.746 101.747v448.476c0.001 56.104-45.643 101.747-101.745 101.747zM206.855 304.103c-20.813 0-37.746 16.933-37.746 37.747v448.476c0 20.813 16.933 37.747 37.746 37.747h619.572c20.813 0 37.746-16.934 37.746-37.747V341.849c0-20.813-16.933-37.747-37.746-37.747H206.855z" fill="#3a95ff" p-id="3535"></path><path d="M135.609 451.592h755.962v64H135.609z" fill="#3a95ff" p-id="3536"></path><path d="M515.84 647.585c-67.682 0-122.745-55.063-122.745-122.745 0-23.815 6.837-46.923 19.772-66.825l53.662 34.877c-6.172 9.496-9.434 20.543-9.434 31.948 0 32.393 26.353 58.745 58.745 58.745 32.393 0 58.746-26.353 58.746-58.745 0-10.593-2.84-20.961-8.213-29.985l54.99-32.742c11.268 18.923 17.223 40.614 17.223 62.728 0 67.68-55.064 122.744-122.746 122.744zM629 304H396c-24.262 0-44-19.738-44-44v-86c0-24.262 19.738-44 44-44h233c24.262 0 44 19.738 44 44v86c0 24.262-19.738 44-44 44z m-213-64h193v-46H416v46z" fill="#3a95ff" p-id="3537"></path></svg>