<svg viewBox="0 0 1024 1024" version="1.1" xmlns="http://www.w3.org/2000/svg"><path d="M679.32108532 586.62677565l-55.77369557-73.05568515 18.85308002 172.81989985zM574.05805462 450.72748988H450.72748988l-31.42179958 318.93127014 95.83648922 85.62440616 95.83649068-85.62440616-32.20734556-314.21800014zM583.48459465 335.25237466l22.78080554-117.83175023H423.23341434l27.49407554 117.83175023z" fill="#3a95ff" p-id="11065"></path><path d="M515.14217952 10.82228851c-276.51184005 0-500.3921655 223.88032544-500.39216551 500.39216698s223.88032544 500.3921655 500.39216551 500.3921655S1014.7488005 787.72629555 1014.7488005 511.21445549s-223.88032544-500.3921655-499.60662098-500.39216698z m136.68483026 165.7499963l-36.13506959 196.38624992H414.5924203l-36.13507105-196.38624992h273.36966053z m0 591.51538619h-4.71327v18.85308004l-136.68483028 117.83175024-136.68483027-117.83175024 40.84834107-373.13387673h196.3862499l4.71326999 27.49407556 109.19075473 140.61255576-73.05568514 186.17416537z" fill="#3a95ff" p-id="11066"></path></svg>