<?xml version="1.0" standalone="no"?><!DOCTYPE svg PUBLIC "-//W3C//DTD SVG 1.1//EN" "http://www.w3.org/Graphics/SVG/1.1/DTD/svg11.dtd"><svg t="1599792097013" class="icon" viewBox="0 0 1024 1024" version="1.1" xmlns="http://www.w3.org/2000/svg" p-id="10120" xmlns:xlink="http://www.w3.org/1999/xlink" width="200" height="200"><defs><style type="text/css"></style></defs><path d="M511.308283 960.491313c-2.646626 0-5.823354-0.530101-7.945051-2.116525L129.480404 742.834424C124.18198 740.183919 121.535354 734.890667 121.535354 729.062141V296.39499c0-5.827232 2.646626-10.595556 7.94505-13.772283L503.363232 67.082343c5.298424-2.646626 10.591677-2.646626 15.890101 0l373.889293 215.540364c5.293253 2.651798 7.939879 7.945051 7.939879 13.772283v432.13705c0 5.828525-2.646626 10.595556-7.939879 13.772283L519.253333 958.374788c-2.116525 1.586424-5.298424 2.116525-7.94505 2.116525zM153.307798 719.53196l358.000485 206.535111 358.000485-206.535111V306.456566L511.308283 99.91499 153.307798 306.456566v413.075394z m0 0" fill="#3a95ff" p-id="10121"></path><path d="M508.131556 164.526545l293.91903 182.707718-95.323798 270.085171-198.596525 43.429495-301.332687 28.065616 47.131151-317.752888 254.202829-206.535112z m0 0" fill="#3a95ff" opacity="0.5" p-id="10122"></path><path d="M508.131556 299.571717l190.651474 110.682505 87.378748 254.727758-278.030222 110.686384-190.651475-158.34893 23.832565-199.121454 166.81891-118.626263z m0 0" fill="#3a95ff" p-id="10123"></path></svg>