<?xml version="1.0" standalone="no"?><!DOCTYPE svg PUBLIC "-//W3C//DTD SVG 1.1//EN" "http://www.w3.org/Graphics/SVG/1.1/DTD/svg11.dtd"><svg class="icon" width="64px" height="54.43px" viewBox="0 0 1204 1024" version="1.1" xmlns="http://www.w3.org/2000/svg"><path fill="#e2b831" d="M319.578353 784.594824s168.899765 94.448941 101.857882 192.752941l-0.331294 0.12047c-15.239529 23.491765-62.795294 53.609412-210.763294-10.962823 0 0 67.162353-46.893176 130.409412-51.260236-10.661647-29.003294-18.793412-70.656-21.172706-130.650352z m-41.351529 114.597647c-17.498353 17.257412-63.939765 34.032941-178.477177-49.302589 0 0 66.439529-27.437176 121.434353-19.184941-3.614118-26.864941-2.710588-64.120471 6.625882-115.952941 0 0 126.795294 112.880941 50.718118 184.410353l-0.301176 0.030118z m-106.104471-102.068706c-19.395765 10.932706-64 14.576941-144.414118-85.534118 0 0 64.662588-8.252235 110.802824 12.047059 3.192471-24.395294 12.830118-56.711529 33.310117-99.84 0 0 84.118588 128.903529 0.602353 173.357176h-0.301176z m-60.295529-152.064c-20.178824 2.891294-59.392-8.854588-94.59953-120.832 0 0 57.795765 14.456471 90.352941 47.073882 10.842353-19.696941 29.816471-44.062118 61.560471-73.999059 0 0 28.852706 137.728-57.103059 147.877647 0 0-0.090353 0-0.210823-0.12047z m-21.534118-136.011294c-20.269176-1.897412-55.717647-22.377412-64.030118-139.444706 0 0 52.856471 27.407059 77.010824 66.710588 15.058824-16.655059 39.152941-35.960471 77.010823-57.735529 0 0-3.855059 140.679529-89.810823 130.650352l-0.180706-0.180705z m19.034353-136.914824c-17.106824-8.372706-41.351529-38.128941-9.697883-143.450353 0 0 37.165176 41.622588 45.266824 84.028235 18.763294-9.547294 46.290824-18.432 86.648471-24.907294 0 0-50.145882 121.916235-122.096942 84.540236l-0.12047-0.210824z m57.344-109.568c-14.305882-9.667765-32.225882-39.363765 9.366588-129.746823 0 0 28.069647 41.984 29.967059 81.01647 18.010353-6.234353 43.791059-10.721882 80.805647-11.444706 0 0-60.295529 102.942118-120.048941 60.385883l-0.090353-0.210824z m73.487059-95.774118V166.550588C230.339765 155.316706 221.967059 126.494118 276.992 60.144941c0 0 14.095059 41.411765 6.927059 74.480941 16.474353-1.174588 39.032471 0.843294 70.174117 8.493177 0 0-73.487059 72.643765-113.965176 23.67247z m77.312-56.621176v-0.180706c-8.011294-9.216-14.848-32.768 30.087529-86.919529 0 0 11.504941 33.792 5.662118 60.837647 13.432471-0.963765 31.864471 0.662588 57.253647 6.927059 0 0-59.964235 59.271529-93.003294 19.305411zM468.841412 20.419765c-78.366118-12.408471-88.847059 42.044235-88.847059 42.044235 52.525176 22.949647 88.847059-42.044235 88.847059-42.044235z m414.32847 764.144941c-2.379294 59.994353-10.541176 101.647059-21.202823 130.650353 63.247059 4.367059 130.439529 51.260235 130.439529 51.260235-147.968 64.572235-195.523765 34.454588-210.763294 10.962824l-0.301176-0.120471c-67.072-98.304 101.827765-192.752941 101.827764-192.752941z m98.394353 46.08c54.994824-8.252235 121.434353 19.215059 121.434353 19.215059-114.507294 83.335529-160.978824 66.56-178.477176 49.302588h-0.301177c-76.047059-71.559529 50.748235-184.440471 50.748236-184.440471 9.336471 51.832471 10.24 89.088 6.595764 115.952942z m82.672941-107.038118c46.170353-20.299294 110.802824-12.047059 110.802824-12.047059-80.414118 100.111059-124.988235 96.466824-144.414118 85.534118-0.150588 0-0.271059 0.060235-0.271058 0.060235-83.516235-44.513882 0.572235-173.387294 0.572235-173.387294 20.48 43.128471 30.117647 75.474824 33.310117 99.84z m-30.629647-226.334117c31.774118 29.936941 50.748235 54.302118 61.560471 73.999058 32.587294-32.617412 90.352941-47.073882 90.352941-47.073882-35.207529 111.977412-74.420706 123.723294-94.569412 120.832l-0.240941 0.150588c-85.925647-10.149647-57.103059-147.907765-57.103059-147.907764z m-11.143529-118.723765c37.857882 21.775059 61.921882 41.080471 77.010824 57.735529 24.154353-39.273412 77.010824-66.740706 77.010823-66.740706-8.312471 117.097412-43.760941 137.577412-64 139.444706l-0.210823 0.210824c-85.955765 10.029176-89.810824-130.650353-89.810824-130.650353z m70.836706-6.234353c-71.920941 37.376-122.096941-84.570353-122.096941-84.570353 40.357647 6.505412 67.885176 15.36 86.64847 24.967529 8.101647-42.465882 45.266824-84.058353 45.266824-84.058353 31.623529 105.321412 7.439059 135.077647-9.697883 143.450353a2.138353 2.138353 0 0 1-0.12047 0.210824zM1036.047059 262.776471c-59.753412 42.526118-120.079059-60.385882-120.079059-60.385883 37.014588 0.722824 62.795294 5.210353 80.805647 11.444706 1.897412-39.032471 29.967059-81.016471 29.967059-81.01647 41.622588 90.383059 23.672471 120.079059 9.366588 129.746823l-0.060235 0.210824z m-187.331765-119.657412c31.081412-7.649882 53.639529-9.637647 70.113882-8.493177-7.137882-33.069176 6.927059-74.480941 6.927059-74.480941 55.055059 66.319059 46.682353 95.171765 36.894118 106.435765v0.210823c-40.508235 48.971294-113.965176-23.672471-113.965177-23.67247z m-56.410353-52.284235c25.389176-6.264471 43.821176-7.890824 57.253647-6.927059-5.842824-27.015529 5.662118-60.837647 5.662118-60.837647 44.935529 54.151529 38.098824 77.703529 30.117647 86.919529v0.150588c-33.069176 39.966118-93.063529-19.305412-93.063529-19.305411z m30.509177-28.310589S812.272941 7.981176 733.967059 20.419765c0 0 36.291765 64.993882 88.847059 42.044235zM416.587294 426.767059v-109.537883c77.131294-10.24 132.427294-43.008 165.888-98.334117h100.352v539.648h-135.168V376.621176c-27.316706 21.172706-70.987294 37.888-131.072 50.176z"/></svg>