<svg viewBox="0 0 1024 1024" version="1.1" xmlns="http://www.w3.org/2000/svg"><path d="M512 199.05024l85.4528 173.15328a80.52224 80.52224 0 0 0 60.66176 44.08832l191.11424 27.77088-138.28608 134.79424a80.49152 80.49152 0 0 0-23.168 71.30112l32.64512 190.34112-170.9312-89.86112a80.83968 80.83968 0 0 0-37.48864-9.25696c-13.00992 0-25.96864 3.2-37.4784 9.25184L303.58016 840.4992l32.64-190.30528a80.50688 80.50688 0 0 0-23.15776-71.33184l-138.2912-134.79936 191.11424-27.77088a80.50176 80.50176 0 0 0 60.6464-44.06272L512 199.05024m0-117.2992c-12.6464 0-25.29792 6.58944-31.80032 19.76832L362.25024 340.5056c-1.29024 2.61632-3.7888 4.4288-6.67648 4.84864l-263.73632 38.3232c-29.08672 4.22912-40.704 39.97184-19.65568 60.48768l190.83776 186.02496c2.08896 2.03776 3.0464 4.97152 2.54976 7.84896L220.5184 900.7104c-3.93216 22.92224 14.27968 41.53856 34.944 41.53856a35.3024 35.3024 0 0 0 16.512-4.15232L507.87328 814.08a8.83712 8.83712 0 0 1 8.25344 0l235.89376 124.01664a35.28704 35.28704 0 0 0 16.512 4.15232c20.66432 0 38.87616-18.61632 34.944-41.53856l-45.05088-262.67136a8.8576 8.8576 0 0 1 2.54976-7.84896l190.83776-186.02496c21.04832-20.51584 9.43104-56.26368-19.65568-60.48768l-263.73632-38.3232a8.86784 8.86784 0 0 1-6.67648-4.84864l-117.94432-238.98624c-6.5024-13.17376-19.15392-19.76832-31.80032-19.76832z" fill="#ffd200"></path></svg>