<?xml version="1.0" standalone="no"?><!DOCTYPE svg PUBLIC "-//W3C//DTD SVG 1.1//EN" "http://www.w3.org/Graphics/SVG/1.1/DTD/svg11.dtd"><svg t="1599793028195" class="icon" viewBox="0 0 1024 1024" version="1.1" xmlns="http://www.w3.org/2000/svg" p-id="11026" xmlns:xlink="http://www.w3.org/1999/xlink" width="200" height="200"><defs><style type="text/css"></style></defs><path d="M950.37 462.25l-40.68-36.77-96.4-87.15-113.35-102.48-92.71-83.8-26.4-23.88c-9.44-8.52-18.88-17.12-30.72-22.26-12.43-5.39-25.06-8.79-38.78-8.63-14 0.17-26.72 3.74-39.35 9.5-8.44 3.85-15.82 9.74-22.67 15.91q-8.79 7.92-17.56 15.87l-81.55 73.73L237.71 314Q185.84 360.87 134 407.76l-57.57 52-2.71 2.45c-11.68 10.56-11.54 31.87 0 42.45 12.48 11.46 30 11.27 42.45 0l32.44-29.33v357.61c0.05 22.8 7.86 43.13 22 60.81 16.81 21.1 44 32.72 70.71 32.94H754.7c9.39 0 18.78 0.08 28.17 0 30.75-0.28 57.61-15.12 75.74-39.53 11.54-15.53 16.83-35.24 16.86-54.42V475.44c10.54 9.6 21.08 19.19 31.75 28.64l0.69 0.62c11.65 10.53 31.11 12.36 42.46 0 10.54-11.48 12.44-31.2 0-42.45zM601 866.65H408.79V712.44c0-8.68-0.51-17.65 0.14-26.38a64.43 64.43 0 0 1 2.14-7.84 61.31 61.31 0 0 1 3.43-6c0.24-0.37 0.49-0.73 0.75-1.09 1-1.1 2.22-2.28 2.34-2.39 1-1 2.12-1.9 3.15-2.86a60.43 60.43 0 0 1 6.33-3.66 64.91 64.91 0 0 1 7.61-2.09c5.52-0.37 11.1-0.19 16.62-0.19h118.27c6.6 0 13.35-0.28 20 0.18a63.63 63.63 0 0 1 7.68 2.1 61.31 61.31 0 0 1 6 3.43c0.37 0.24 0.73 0.49 1.09 0.75 1.1 1 2.28 2.23 2.39 2.34 1 1 1.9 2.12 2.86 3.15a60.43 60.43 0 0 1 3.66 6.33 64.14 64.14 0 0 1 2.11 7.71c0.52 7.23 0.17 14.62 0.17 21.83v158.89zM413.66 673.07c-0.07-0.09 0.43-0.69 1.1-1.41a11.48 11.48 0 0 1-1.1 1.41z m188.71-8.25c0.09-0.07 0.69 0.43 1.41 1.1a11.48 11.48 0 0 1-1.41-1.1zM802.8 860l-0.33 0.23a62 62 0 0 1-6.89 4 66.72 66.72 0 0 1-8.2 2.24c-5.78 0.39-11.64 0.2-17.41 0.2h-94.45V692.21c0-18.32-4.54-37.37-15.37-52.43-17.64-24.5-44.13-39.55-74.69-39.86-47.12-0.49-94.27 0-141.4 0-17.15 0-33.51 3-48.8 11.22-26.91 14.48-43 42.11-46.11 71.93-0.63 6-0.39 12.16-0.39 18.21v165.37h-43.13c-21.34 0-42.69 0.14-64 0-1.62 0-3.23-0.07-4.84-0.18a67.88 67.88 0 0 1-8.3-2.27 62.59 62.59 0 0 1-6.32-3.59l-0.68-0.46c-1.12-1-2.25-2-3.31-3s-1.93-2.07-2.88-3.12c-0.08-0.11-0.16-0.21-0.23-0.32a62.93 62.93 0 0 1-4-6.89 67 67 0 0 1-2.32-8.57c-1.15-13.6-0.12-27.7-0.12-41.24V481c0-16.57 0.35-33.18 0-49.74v-0.73a28.21 28.21 0 0 0-1.28-8.31l40.17-36.32L358.07 286l93.53-84.56c13.78-12.45 27.43-25 41.33-37.36l0.07-0.08 0.31-0.28a81.1 81.1 0 0 1 7.23-4.23 65.24 65.24 0 0 1 7.52-2 65.9 65.9 0 0 1 7.95 0 66.41 66.41 0 0 1 7.47 2c2.44 1.25 4.77 2.64 7.12 4.11l0.71 0.63 1 0.86 6.11 5.52 25.52 23.08 89.38 80.8 110.36 99.77 53 47.92a29.47 29.47 0 0 0-1.21 8.38v357.19c0 15.38 0.12 30.77 0 46.15 0 1.54-0.07 3.08-0.17 4.61a66.32 66.32 0 0 1-2.28 8.31 60.78 60.78 0 0 1-3.58 6.33c-0.15 0.23-0.31 0.45-0.47 0.68-1 1.11-1.95 2.24-3 3.3s-2.12 1.94-3.17 2.87z" p-id="11027" fill="#fff"></path></svg>