<?xml version="1.0" standalone="no"?><!DOCTYPE svg PUBLIC "-//W3C//DTD SVG 1.1//EN" "http://www.w3.org/Graphics/SVG/1.1/DTD/svg11.dtd"><svg t="1595039379427" class="icon" viewBox="0 0 1024 1024" version="1.1" xmlns="http://www.w3.org/2000/svg" p-id="15571" xmlns:xlink="http://www.w3.org/1999/xlink" width="200" height="200"><defs><style type="text/css"></style></defs><path d="M227.9 484.9c11.6 11.6 17.3 25.5 17.3 41.9s-5.8 30.2-17.3 41.9S202.4 586 186 586s-30.2-5.8-41.9-17.3-17.3-25.5-17.3-41.9 5.8-30.2 17.3-41.9c11.6-11.6 25.5-17.3 41.9-17.3s30.3 5.8 41.9 17.3zM333.7 244c14.5 14.5 21.8 32 21.8 52.3s-7.3 37.7-21.8 52.3c-14.5 14.6-32 21.9-52.3 21.9-20.3 0-37.7-7.2-52.3-21.8s-21.8-32-21.8-52.3c0-20.3 7.2-37.7 21.8-52.3s32-21.8 52.3-21.8c20.3 0 37.7 7.2 52.3 21.7z m-10.4 471.6c11.6 11.6 17.3 25.5 17.3 41.9s-5.8 30.2-17.3 41.9c-11.6 11.6-25.5 17.3-41.9 17.3-16.1 0-29.9-5.9-41.7-17.6-11.7-11.7-17.6-25.6-17.6-41.7 0-16.4 5.8-30.2 17.3-41.9 11.6-11.6 25.5-17.3 41.9-17.3s30.4 5.8 42 17.4zM575 137.9c17.2 17.3 25.9 38.2 25.9 63s-8.7 45.6-25.9 63c-17.3 17.3-38.2 25.9-63 25.9s-45.6-8.7-63-25.9c-17.3-17.2-25.9-38.2-25.9-63s8.7-45.6 25.9-63c17.2-17.2 38.2-25.9 63-25.9 24.7 0 45.6 8.7 63 25.9z m-21.2 673c11.6 11.6 17.3 25.5 17.3 41.9s-5.8 30.2-17.3 41.9c-11.6 11.6-25.5 17.3-41.9 17.3s-30.2-5.8-41.9-17.3c-11.7-11.6-17.3-25.5-17.3-41.9s5.8-30.2 17.3-41.9c11.6-11.6 25.5-17.3 41.9-17.3s30.3 5.8 41.9 17.3z m292.4-514.5c0 28.7-10.2 53.2-30.6 73.4-20.3 20.2-44.8 30.2-73.1 30.2-28.7 0-53.2-10.1-73.4-30.2-20.2-20.2-30.2-44.7-30.2-73.4 0-28.4 10.1-52.8 30.2-73.1 20.2-20.3 44.7-30.6 73.4-30.6 28.4 0 52.8 10.2 73.1 30.6 20.4 20.2 30.6 44.6 30.6 73.1z m-44.5 461.1c0 16.1-5.9 29.9-17.6 41.7-11.7 11.7-25.6 17.6-41.7 17.6-16.4 0-30.2-5.8-41.9-17.3-11.6-11.6-17.3-25.5-17.3-41.9s5.8-30.2 17.3-41.9c11.6-11.6 25.5-17.3 41.9-17.3s30.2 5.8 41.9 17.3c11.6 11.5 17.4 25.4 17.4 41.8z m78.1-272.6c11.6 11.6 17.3 25.5 17.3 41.9s-5.8 30.2-17.3 41.9S854.3 586 838 586s-30.2-5.8-41.9-17.3c-11.6-11.6-17.3-25.5-17.3-41.9s5.8-30.2 17.3-41.9c11.6-11.6 25.5-17.3 41.9-17.3 16.2 0 30.3 5.8 41.8 17.3z" p-id="15572" fill="#666666"></path></svg>