<?xml version="1.0" standalone="no"?><!DOCTYPE svg PUBLIC "-//W3C//DTD SVG 1.1//EN" "http://www.w3.org/Graphics/SVG/1.1/DTD/svg11.dtd"><svg t="1600075047484" class="icon" viewBox="0 0 1024 1024" version="1.1" xmlns="http://www.w3.org/2000/svg" p-id="14358" xmlns:xlink="http://www.w3.org/1999/xlink" width="200" height="200"><defs><style type="text/css"></style></defs><path d="M442.8 533.7c-118.4 0-214.7-96.3-214.7-214.7 0-118.4 96.3-214.7 214.7-214.7 118.4 0 214.7 96.3 214.7 214.7 0 118.4-96.3 214.7-214.7 214.7z m0-384.3c-93.6 0-169.7 76.1-169.7 169.7s76.1 169.7 169.7 169.7 169.7-76.1 169.7-169.7-76.1-169.7-169.7-169.7z m0 0" fill="#fff" p-id="14359"></path><path d="M648.1 523.9c-11.4 0-21.1-8.6-22.4-19.9a22.48 22.48 0 0 1 17.3-24.5c77.2-17.9 131.1-85.9 131.1-165.3 0-97.8-70.4-174.4-160.2-174.4-12.4 0-22.5-10.1-22.5-22.5s10.1-22.5 22.5-22.5c115 0 205.1 96.4 205.1 219.4 0 100.4-68.2 186.4-165.9 209.1-1.6 0.5-3.3 0.6-5 0.6z m0 0" fill="#fff" p-id="14360"></path><path d="M514.9 537.3c-164.8 0-298.4 133.6-298.4 298.4 0 1.9 0.1 5.7 0.1 5.7s51 55.1 330.3 53.9c59.6-12.3 176.5-69.6 176.5-69.6-13.8-158.7-75.5-245.6-208.5-288.4z m0 0" fill="#fff" p-id="14361"></path><path d="M462.4 902.9c-105.7 0-189.7-8.9-249.5-26.4-48-14.1-66.5-29.9-72.2-36.1-7.2-7.8-11.2-17.9-11.4-28.5v-1.5-4.3c0-172.5 140.3-312.8 312.9-312.8 172.5 0 312.9 140.3 312.9 312.8 0 13.8-6.7 26.9-18 34.9-2.5 1.8-25.4 17.6-69.8 32.7-56.9 19.4-122.9 29.2-196.1 29.2h-8.8z m-288.2-92.5c2.8 2.4 16.6 13.1 53.5 23.6 38.3 10.9 110.1 24 234.6 24h8.7c85 0 145.6-14.5 181.5-26.7 34.3-11.6 53.2-23.4 57.4-26.2-0.6-147.2-120.5-266.7-267.8-266.7-147.7 0-267.9 120.2-267.9 267.8V810.4z" fill="#fff" p-id="14362"></path><path d="M902.1 825.7c-12.4 0-22.5-10.1-22.5-22.5 0-154-137.2-261.1-232-276.2-5.9-0.9-11.2-4.2-14.7-9s-4.9-10.8-4-16.7c2-12.3 13.5-20.6 25.8-18.7C765 500.2 924.5 624.5 924.5 803.2c0.1 12.4-10 22.5-22.4 22.5z" fill="#fff" p-id="14363"></path></svg>