<?xml version="1.0" standalone="no"?><!DOCTYPE svg PUBLIC "-//W3C//DTD SVG 1.1//EN" "http://www.w3.org/Graphics/SVG/1.1/DTD/svg11.dtd"><svg t="1596378659945" class="icon" viewBox="0 0 1024 1024" version="1.1" xmlns="http://www.w3.org/2000/svg" p-id="12658" xmlns:xlink="http://www.w3.org/1999/xlink" width="200" height="200"><defs><style type="text/css"></style></defs><path d="M512 1015.222c-67.879 0-133.857-13.308-195.921-39.587-59.94-25.385-113.728-61.617-159.913-107.801-46.184-46.185-82.528-99.974-107.801-159.913C22.085 645.857 8.778 579.879 8.778 512c0-67.879 13.308-133.857 39.587-195.921 25.385-59.94 61.617-113.728 107.801-159.913 46.185-46.184 99.974-82.528 159.913-107.801C378.143 22.085 444.121 8.778 512 8.778c67.879 0 133.857 13.308 195.921 39.587 59.94 25.385 113.728 61.617 159.913 107.801 46.184 46.185 82.528 99.974 107.801 159.913 26.28 62.064 39.587 128.042 39.587 195.921 0 67.879-13.308 133.857-39.587 195.921-25.385 59.94-61.617 113.728-107.801 159.913-46.185 46.184-99.974 82.528-159.913 107.801-62.064 26.28-128.042 39.587-195.921 39.587z m0-916.982C283.873 98.24 98.24 283.873 98.24 512S283.873 925.76 512 925.76 925.76 740.127 925.76 512 740.127 98.24 512 98.24z" fill="#3742fd" p-id="12659"></path><path d="M260.39 512a251.61 251.61 0 1 0 503.22 0 251.61 251.61 0 1 0-503.22 0z" fill="#3742fd" p-id="12660"></path></svg>