<?xml version="1.0" standalone="no"?><!DOCTYPE svg PUBLIC "-//W3C//DTD SVG 1.1//EN" "http://www.w3.org/Graphics/SVG/1.1/DTD/svg11.dtd"><svg t="1600074938496" class="icon" viewBox="0 0 1024 1024" version="1.1" xmlns="http://www.w3.org/2000/svg" p-id="4935" xmlns:xlink="http://www.w3.org/1999/xlink" width="200" height="200"><defs><style type="text/css"></style></defs><path d="M736.44032 318.52032c37.6064-52.06016 70.86592-117.44256 37.95968-183.43424a99.36384 99.36384 0 0 0-63.2064-54.04672c-35.67616-9.728-72.55552 1.8176-96.18432 12.50816A145.80224 145.80224 0 0 0 514.048 61.952c-54.272 4.608-78.52544 17.48992-100.864 33.15712-39.6032-10.92096-89.03168-16.57344-127.94368 4.68992a101.376 101.376 0 0 0-49.53088 66.22208C221.184 223.10912 256.47616 276.992 295.03488 324.03968 222.44864 373.76 53.31456 513.75616 67.37408 729.28768l0.12288 1.47456C83.93728 884.57216 158.93504 962.56 290.4064 962.56h467.31776c1.85344-0.08192 194.1504-1.35168 199.6288-246.70208 5.16096-231.80288-160.1024-358.6304-220.91264-397.3376z m21.53984 572.6464H290.4064c-117.85728 0-143.0784-84.42368-152.02816-167.26528-12.0832-192.24576 157.312-315.98592 209.56672-349.35296a55.94112 55.94112 0 0 0 12.5952-83.27168c-33.2288-39.20384-62.976-79.36-55.808-107.56608 3.47648-13.62432 9.6512-18.50368 14.6432-21.23264 17.0496-9.33376 50.3808-7.168 89.1392 5.79072L425.8816 174.08l18.5344-13.5168c21.62688-15.872 32.48128-23.80288 75.6992-27.48928 36.08576-3.072 62.20288 26.5728 62.2592 26.624l20.2496 24.23808 26.43968-17.23392c11.55072-7.52128 43.56096-22.19008 63.488-16.768 5.20704 1.42336 11.98592 4.64384 18.19136 17.08032 14.42816 28.93824 2.14016 65.39264-41.088 121.9072a55.92576 55.92576 0 0 0 16.54784 82.53952c34.23744 19.53792 204.8 127.90272 199.9872 342.79936-3.83488 170.5984-115.53792 176.768-128.20992 176.90624z m-127.83104-276.11136a35.69664 35.69664 0 0 0 0-71.39328h-35.328l35.70688-49.9456a35.63008 35.63008 0 1 0-57.856-41.59488l-54.57408 76.33408L463.5392 456.448a35.6352 35.6352 0 1 0-56.71424 43.17184l33.35168 44.032h-33.57184a35.69664 35.69664 0 0 0 0 71.39328h76.00128v26.85952H406.6048a35.69664 35.69664 0 0 0 0 71.39328h76.00128v52.32128a35.59936 35.59936 0 1 0 71.20384 0v-52.31104h76.3392a35.69664 35.69664 0 0 0 0-71.39328h-76.3392v-26.85952h76.3392z" fill="#fff" p-id="4936"></path></svg>